<?xml version="1.0" standalone="no"?>
<!DOCTYPE svg PUBLIC "-//W3C//DTD SVG 20010904//EN"
 "http://www.w3.org/TR/2001/REC-SVG-20010904/DTD/svg10.dtd">
<svg version="1.0" xmlns="http://www.w3.org/2000/svg"
 width="256.000000pt" height="256.000000pt" viewBox="0 0 256.000000 256.000000"
 preserveAspectRatio="xMidYMid meet">
<metadata>
Created by potrace 1.11, written by Peter Selinger 2001-2013
</metadata>
<g transform="translate(0.000000,256.000000) scale(0.100000,-0.100000)"
fill="#000000" stroke="none">
<path d="M735 2429 c-62 -8 -101 -27 -141 -71 -36 -39 -36 -39 -159 -254 -143
-248 -322 -558 -344 -596 -78 -132 -89 -162 -87 -228 2 -68 8 -84 56 -165 17
-27 35 -59 40 -70 6 -11 18 -33 28 -50 10 -16 30 -50 44 -75 14 -25 42 -74 63
-110 21 -36 49 -85 63 -110 14 -25 34 -58 44 -75 10 -16 21 -36 25 -44 28 -59
198 -343 222 -372 16 -20 50 -46 75 -58 45 -21 54 -21 608 -21 353 0 577 4
600 10 86 24 98 42 501 750 10 19 55 98 100 174 70 124 80 147 85 202 5 67 -6
98 -85 235 -21 36 -137 237 -258 448 -120 210 -233 396 -250 413 -16 17 -50
40 -74 51 -42 18 -71 19 -575 21 -292 0 -554 -2 -581 -5z"/>
</g>
</svg>
